<?xml version="1.0" encoding="UTF-8" standalone="no"?><svg xmlns="http://www.w3.org/2000/svg" xmlns:xlink="http://www.w3.org/1999/xlink" contentScriptType="application/ecmascript" contentStyleType="text/css" height="963px" preserveAspectRatio="none" style="width:1007px;height:963px;" version="1.1" viewBox="0 0 1007 963" width="1007px" zoomAndPan="magnify"><defs><filter height="300%" id="fgirhjwb08vue" width="300%" x="-1" y="-1"><feGaussianBlur result="blurOut" stdDeviation="2.0"/><feColorMatrix in="blurOut" result="blurOut2" type="matrix" values="0 0 0 0 0 0 0 0 0 0 0 0 0 0 0 0 0 0 .4 0"/><feOffset dx="4.0" dy="4.0" in="blurOut2" result="blurOut3"/><feBlend in="SourceGraphic" in2="blurOut3" mode="normal"/></filter></defs><g><text fill="#000000" font-family="sans-serif" font-size="18" lengthAdjust="spacingAndGlyphs" textLength="516" x="241.25" y="29.2419">Singleton : une seule connexion PDO par exécution de script</text><rect fill="#FFFFFF" filter="url(#fgirhjwb08vue)" height="355.0779" style="stroke: #A80036; stroke-width: 1.0;" width="10" x="311" y="205.0637"/><rect fill="#FFFFFF" filter="url(#fgirhjwb08vue)" height="135.8241" style="stroke: #A80036; stroke-width: 1.0;" width="10" x="311" y="637.5537"/><rect fill="#FFFFFF" filter="url(#fgirhjwb08vue)" height="147.5479" style="stroke: #A80036; stroke-width: 1.0;" width="10" x="658" y="336.1818"/><line style="stroke: #A80036; stroke-width: 1.0; stroke-dasharray: 5.0,5.0;" x1="69" x2="69" y1="125.6517" y2="868.4958"/><line style="stroke: #A80036; stroke-width: 1.0; stroke-dasharray: 5.0,5.0;" x1="316" x2="316" y1="125.6517" y2="868.4958"/><line style="stroke: #A80036; stroke-width: 1.0; stroke-dasharray: 5.0,5.0;" x1="663" x2="663" y1="346.0437" y2="868.4958"/><line style="stroke: #A80036; stroke-width: 1.0; stroke-dasharray: 5.0,5.0;" x1="929.5" x2="929.5" y1="125.6517" y2="868.4958"/><rect fill="#FEFECE" filter="url(#fgirhjwb08vue)" height="52.1358" style="stroke: #A80036; stroke-width: 1.5;" width="118" x="8" y="68.5158"/><text fill="#000000" font-family="sans-serif" font-size="14" lengthAdjust="spacingAndGlyphs" textLength="69" x="32.5" y="90.4818">Script PHP</text><text fill="#000000" font-family="sans-serif" font-size="14" lengthAdjust="spacingAndGlyphs" textLength="104" x="15" y="109.5497">(code appelant)</text><rect fill="#FEFECE" filter="url(#fgirhjwb08vue)" height="52.1358" style="stroke: #A80036; stroke-width: 1.5;" width="118" x="8" y="867.4958"/><text fill="#000000" font-family="sans-serif" font-size="14" lengthAdjust="spacingAndGlyphs" textLength="69" x="32.5" y="889.4617">Script PHP</text><text fill="#000000" font-family="sans-serif" font-size="14" lengthAdjust="spacingAndGlyphs" textLength="104" x="15" y="908.5297">(code appelant)</text><rect fill="#FEFECE" filter="url(#fgirhjwb08vue)" height="52.1358" style="stroke: #A80036; stroke-width: 1.5;" width="204" x="212" y="68.5158"/><text fill="#000000" font-family="sans-serif" font-size="14" lengthAdjust="spacingAndGlyphs" textLength="180" x="224" y="90.4818">ConnexionBaseDeDonnees</text><text fill="#000000" font-family="sans-serif" font-size="14" lengthAdjust="spacingAndGlyphs" textLength="190" x="219" y="109.5497">(classe, méthodes statiques)</text><rect fill="#FEFECE" filter="url(#fgirhjwb08vue)" height="52.1358" style="stroke: #A80036; stroke-width: 1.5;" width="204" x="212" y="867.4958"/><text fill="#000000" font-family="sans-serif" font-size="14" lengthAdjust="spacingAndGlyphs" textLength="180" x="224" y="889.4617">ConnexionBaseDeDonnees</text><text fill="#000000" font-family="sans-serif" font-size="14" lengthAdjust="spacingAndGlyphs" textLength="190" x="219" y="908.5297">(classe, méthodes statiques)</text><rect fill="#FEFECE" filter="url(#fgirhjwb08vue)" height="52.1358" style="stroke: #A80036; stroke-width: 1.5;" width="194" x="564" y="867.4958"/><text fill="#000000" font-family="sans-serif" font-size="14" lengthAdjust="spacingAndGlyphs" textLength="131" x="595.5" y="889.4617">Unique instance de</text><text fill="#000000" font-family="sans-serif" font-size="14" lengthAdjust="spacingAndGlyphs" textLength="180" x="571" y="908.5297">ConnexionBaseDeDonnees</text><text fill="#000000" font-family="sans-serif" font-size="14" lengthAdjust="spacingAndGlyphs" textLength="115" x="869.5" y="102.4818">Base de données</text><text fill="#000000" font-family="sans-serif" font-size="14" lengthAdjust="spacingAndGlyphs" textLength="46" x="904" y="121.5497">MySQL</text><path d="M912,51.5158 C912,41.5158 930,41.5158 930,41.5158 C930,41.5158 948,41.5158 948,51.5158 L948,77.5158 C948,87.5158 930,87.5158 930,87.5158 C930,87.5158 912,87.5158 912,77.5158 L912,51.5158 " fill="#FEFECE" filter="url(#fgirhjwb08vue)" style="stroke: #000000; stroke-width: 1.5;"/><path d="M912,51.5158 C912,61.5158 930,61.5158 930,61.5158 C930,61.5158 948,61.5158 948,51.5158 " fill="none" style="stroke: #000000; stroke-width: 1.5;"/><text fill="#000000" font-family="sans-serif" font-size="14" lengthAdjust="spacingAndGlyphs" textLength="115" x="869.5" y="882.4617">Base de données</text><text fill="#000000" font-family="sans-serif" font-size="14" lengthAdjust="spacingAndGlyphs" textLength="46" x="904" y="901.5297">MySQL</text><path d="M912,915.6316 C912,905.6316 930,905.6316 930,905.6316 C930,905.6316 948,905.6316 948,915.6316 L948,941.6316 C948,951.6316 930,951.6316 930,951.6316 C930,951.6316 912,951.6316 912,941.6316 L912,915.6316 " fill="#FEFECE" filter="url(#fgirhjwb08vue)" style="stroke: #000000; stroke-width: 1.5;"/><path d="M912,915.6316 C912,925.6316 930,925.6316 930,925.6316 C930,925.6316 948,925.6316 948,915.6316 " fill="none" style="stroke: #000000; stroke-width: 1.5;"/><rect fill="#FFFFFF" filter="url(#fgirhjwb08vue)" height="355.0779" style="stroke: #A80036; stroke-width: 1.0;" width="10" x="311" y="205.0637"/><rect fill="#FFFFFF" filter="url(#fgirhjwb08vue)" height="135.8241" style="stroke: #A80036; stroke-width: 1.0;" width="10" x="311" y="637.5537"/><rect fill="#FFFFFF" filter="url(#fgirhjwb08vue)" height="147.5479" style="stroke: #A80036; stroke-width: 1.0;" width="10" x="658" y="336.1818"/><rect fill="#EEEEEE" filter="url(#fgirhjwb08vue)" height="3" style="stroke: #EEEEEE; stroke-width: 1.0;" width="992.5" x="3" y="157.5047"/><line style="stroke: #000000; stroke-width: 1.0;" x1="3" x2="995.5" y1="157.5047" y2="157.5047"/><line style="stroke: #000000; stroke-width: 1.0;" x1="3" x2="995.5" y1="160.5047" y2="160.5047"/><rect fill="#EEEEEE" filter="url(#fgirhjwb08vue)" height="25.706" style="stroke: #000000; stroke-width: 2.0;" width="312" x="343.25" y="145.6517"/><text fill="#000000" font-family="sans-serif" font-size="13" font-weight="bold" lengthAdjust="spacingAndGlyphs" textLength="295" x="349.25" y="163.5487">Premier appel : l'instance n'existe pas encore</text><polygon fill="#A80036" points="299,201.0637,309,205.0637,299,209.0637,303,205.0637" style="stroke: #A80036; stroke-width: 1.0;"/><line style="stroke: #A80036; stroke-width: 1.0;" x1="69" x2="305" y1="205.0637" y2="205.0637"/><text fill="#000000" font-family="sans-serif" font-size="13" lengthAdjust="spacingAndGlyphs" textLength="220" x="76" y="199.2547">ConnexionBaseDeDonnees::getPdo()</text><line style="stroke: #A80036; stroke-width: 1.0;" x1="321" x2="363" y1="236.7697" y2="236.7697"/><line style="stroke: #A80036; stroke-width: 1.0;" x1="363" x2="363" y1="236.7697" y2="249.7697"/><line style="stroke: #A80036; stroke-width: 1.0;" x1="322" x2="363" y1="249.7697" y2="249.7697"/><polygon fill="#A80036" points="332,245.7697,322,249.7697,332,253.7697,328,249.7697" style="stroke: #A80036; stroke-width: 1.0;"/><text fill="#000000" font-family="sans-serif" font-size="13" lengthAdjust="spacingAndGlyphs" textLength="79" x="328" y="230.9607">getInstance()</text><line style="stroke: #A80036; stroke-width: 1.0;" x1="321" x2="363" y1="281.4757" y2="281.4757"/><line style="stroke: #A80036; stroke-width: 1.0;" x1="363" x2="363" y1="281.4757" y2="294.4757"/><line style="stroke: #A80036; stroke-width: 1.0;" x1="322" x2="363" y1="294.4757" y2="294.4757"/><polygon fill="#A80036" points="332,290.4757,322,294.4757,332,298.4757,328,294.4757" style="stroke: #A80036; stroke-width: 1.0;"/><text fill="#000000" font-family="sans-serif" font-size="13" lengthAdjust="spacingAndGlyphs" textLength="279" x="328" y="275.6667">is_null(ConnexionBaseDeDonnees::$instance) ?</text><path d="M619,264.2697 L619,291.2697 L752,291.2697 L752,274.2697 L742,264.2697 L619,264.2697 " fill="#FBFB77" filter="url(#fgirhjwb08vue)" style="stroke: #A80036; stroke-width: 1.0;"/><path d="M742,264.2697 L742,274.2697 L752,274.2697 L742,264.2697 " fill="#FBFB77" style="stroke: #A80036; stroke-width: 1.0;"/><text fill="#000000" font-family="sans-serif" font-size="13" lengthAdjust="spacingAndGlyphs" textLength="112" x="625" y="283.1667">true : première fois</text><polygon fill="#A80036" points="552,322.1818,562,326.1818,552,330.1818,556,326.1818" style="stroke: #A80036; stroke-width: 1.0;"/><line style="stroke: #A80036; stroke-width: 1.0;" x1="321" x2="558" y1="326.1818" y2="326.1818"/><text fill="#000000" font-family="sans-serif" font-size="13" lengthAdjust="spacingAndGlyphs" textLength="198" x="328" y="320.3728">new ConnexionBaseDeDonnees()</text><rect fill="#FEFECE" filter="url(#fgirhjwb08vue)" height="52.1358" style="stroke: #A80036; stroke-width: 1.5;" width="194" x="564" y="302.4757"/><text fill="#000000" font-family="sans-serif" font-size="14" lengthAdjust="spacingAndGlyphs" textLength="131" x="595.5" y="324.4417">Unique instance de</text><text fill="#000000" font-family="sans-serif" font-size="14" lengthAdjust="spacingAndGlyphs" textLength="180" x="571" y="343.5096">ConnexionBaseDeDonnees</text><polygon fill="#A80036" points="918,389.3176,928,393.3176,918,397.3176,922,393.3176" style="stroke: #A80036; stroke-width: 1.0;"/><line style="stroke: #A80036; stroke-width: 1.0;" x1="668" x2="924" y1="393.3176" y2="393.3176"/><text fill="#000000" font-family="sans-serif" font-size="13" lengthAdjust="spacingAndGlyphs" textLength="238" x="675" y="387.5086">new PDO(...) : ouverture de la connexion</text><polygon fill="#A80036" points="679,421.0236,669,425.0236,679,429.0236,675,425.0236" style="stroke: #A80036; stroke-width: 1.0;"/><line style="stroke: #A80036; stroke-width: 1.0; stroke-dasharray: 2.0,2.0;" x1="673" x2="929" y1="425.0236" y2="425.0236"/><text fill="#000000" font-family="sans-serif" font-size="13" lengthAdjust="spacingAndGlyphs" textLength="63" x="685" y="419.2146">connexion</text><line style="stroke: #A80036; stroke-width: 1.0;" x1="668" x2="710" y1="456.7296" y2="456.7296"/><line style="stroke: #A80036; stroke-width: 1.0;" x1="710" x2="710" y1="456.7296" y2="469.7296"/><line style="stroke: #A80036; stroke-width: 1.0;" x1="669" x2="710" y1="469.7296" y2="469.7296"/><polygon fill="#A80036" points="679,465.7296,669,469.7296,679,473.7296,675,469.7296" style="stroke: #A80036; stroke-width: 1.0;"/><text fill="#000000" font-family="sans-serif" font-size="13" lengthAdjust="spacingAndGlyphs" textLength="138" x="675" y="450.9206">$this-&gt;pdo = objet PDO</text><polygon fill="#A80036" points="332,479.7296,322,483.7296,332,487.7296,328,483.7296" style="stroke: #A80036; stroke-width: 1.0;"/><line style="stroke: #A80036; stroke-width: 1.0; stroke-dasharray: 2.0,2.0;" x1="326" x2="662" y1="483.7296" y2="483.7296"/><line style="stroke: #A80036; stroke-width: 1.0;" x1="321" x2="363" y1="515.4356" y2="515.4356"/><line style="stroke: #A80036; stroke-width: 1.0;" x1="363" x2="363" y1="515.4356" y2="528.4356"/><line style="stroke: #A80036; stroke-width: 1.0;" x1="322" x2="363" y1="528.4356" y2="528.4356"/><polygon fill="#A80036" points="332,524.4356,322,528.4356,332,532.4356,328,528.4356" style="stroke: #A80036; stroke-width: 1.0;"/><text fill="#000000" font-family="sans-serif" font-size="13" lengthAdjust="spacingAndGlyphs" textLength="323" x="328" y="509.6266">ConnexionBaseDeDonnees::$instance = instance créée</text><polygon fill="#A80036" points="80,556.1417,70,560.1417,80,564.1417,76,560.1417" style="stroke: #A80036; stroke-width: 1.0;"/><line style="stroke: #A80036; stroke-width: 1.0; stroke-dasharray: 2.0,2.0;" x1="74" x2="315" y1="560.1417" y2="560.1417"/><text fill="#000000" font-family="sans-serif" font-size="13" lengthAdjust="spacingAndGlyphs" textLength="92" x="86" y="554.3327">$instance-&gt;pdo</text><rect fill="#EEEEEE" filter="url(#fgirhjwb08vue)" height="3" style="stroke: #EEEEEE; stroke-width: 1.0;" width="992.5" x="3" y="589.9947"/><line style="stroke: #000000; stroke-width: 1.0;" x1="3" x2="995.5" y1="589.9947" y2="589.9947"/><line style="stroke: #000000; stroke-width: 1.0;" x1="3" x2="995.5" y1="592.9947" y2="592.9947"/><rect fill="#EEEEEE" filter="url(#fgirhjwb08vue)" height="25.706" style="stroke: #000000; stroke-width: 2.0;" width="270" x="364.25" y="578.1417"/><text fill="#000000" font-family="sans-serif" font-size="13" font-weight="bold" lengthAdjust="spacingAndGlyphs" textLength="253" x="370.25" y="596.0387">Appels suivants : on réutilise l'instance</text><polygon fill="#A80036" points="299,633.5537,309,637.5537,299,641.5537,303,637.5537" style="stroke: #A80036; stroke-width: 1.0;"/><line style="stroke: #A80036; stroke-width: 1.0;" x1="69" x2="305" y1="637.5537" y2="637.5537"/><text fill="#000000" font-family="sans-serif" font-size="13" lengthAdjust="spacingAndGlyphs" textLength="220" x="76" y="631.7447">ConnexionBaseDeDonnees::getPdo()</text><line style="stroke: #A80036; stroke-width: 1.0;" x1="321" x2="363" y1="669.2597" y2="669.2597"/><line style="stroke: #A80036; stroke-width: 1.0;" x1="363" x2="363" y1="669.2597" y2="682.2597"/><line style="stroke: #A80036; stroke-width: 1.0;" x1="322" x2="363" y1="682.2597" y2="682.2597"/><polygon fill="#A80036" points="332,678.2597,322,682.2597,332,686.2597,328,682.2597" style="stroke: #A80036; stroke-width: 1.0;"/><text fill="#000000" font-family="sans-serif" font-size="13" lengthAdjust="spacingAndGlyphs" textLength="79" x="328" y="663.4507">getInstance()</text><line style="stroke: #A80036; stroke-width: 1.0;" x1="321" x2="363" y1="721.3187" y2="721.3187"/><line style="stroke: #A80036; stroke-width: 1.0;" x1="363" x2="363" y1="721.3187" y2="734.3187"/><line style="stroke: #A80036; stroke-width: 1.0;" x1="322" x2="363" y1="734.3187" y2="734.3187"/><polygon fill="#A80036" points="332,730.3187,322,734.3187,332,738.3187,328,734.3187" style="stroke: #A80036; stroke-width: 1.0;"/><text fill="#000000" font-family="sans-serif" font-size="13" lengthAdjust="spacingAndGlyphs" textLength="279" x="328" y="715.5097">is_null(ConnexionBaseDeDonnees::$instance) ?</text><path d="M619,695.2597 L619,740.2597 L896,740.2597 L896,705.2597 L886,695.2597 L619,695.2597 " fill="#FBFB77" filter="url(#fgirhjwb08vue)" style="stroke: #A80036; stroke-width: 1.0;"/><path d="M886,695.2597 L886,705.2597 L896,705.2597 L886,695.2597 " fill="#FBFB77" style="stroke: #A80036; stroke-width: 1.0;"/><text fill="#000000" font-family="sans-serif" font-size="13" lengthAdjust="spacingAndGlyphs" textLength="256" x="625" y="714.1567">false : pas de nouvel appel au constructeur,</text><text fill="#000000" font-family="sans-serif" font-size="13" lengthAdjust="spacingAndGlyphs" textLength="159" x="625" y="731.8627">pas de nouvelle connexion</text><polygon fill="#A80036" points="80,769.3778,70,773.3778,80,777.3778,76,773.3778" style="stroke: #A80036; stroke-width: 1.0;"/><line style="stroke: #A80036; stroke-width: 1.0; stroke-dasharray: 2.0,2.0;" x1="74" x2="315" y1="773.3778" y2="773.3778"/><text fill="#000000" font-family="sans-serif" font-size="13" lengthAdjust="spacingAndGlyphs" textLength="218" x="86" y="767.5688">$instance-&gt;pdo (le même objet PDO)</text><path d="M10,786.3778 L10,849.3778 L987,849.3778 L987,796.3778 L977,786.3778 L10,786.3778 " fill="#FBFB77" filter="url(#fgirhjwb08vue)" style="stroke: #A80036; stroke-width: 1.0;"/><path d="M977,786.3778 L977,796.3778 L987,796.3778 L977,786.3778 " fill="#FBFB77" style="stroke: #A80036; stroke-width: 1.0;"/><text fill="#000000" font-family="sans-serif" font-size="13" lengthAdjust="spacingAndGlyphs" textLength="559" x="212.75" y="805.2748">Le constructeur étant privé, « new ConnexionBaseDeDonnees() » est interdit hors de la classe :</text><text fill="#000000" font-family="sans-serif" font-size="13" lengthAdjust="spacingAndGlyphs" textLength="500" x="212.75" y="822.9808">on est obligé de passer par getPdo(). L'instance vit le temps de l'exécution du script :</text><text fill="#000000" font-family="sans-serif" font-size="13" lengthAdjust="spacingAndGlyphs" textLength="507" x="212.75" y="840.6868">une nouvelle requête HTTP recrée une nouvelle instance (et une nouvelle connexion).</text><!--MD5=[3d7281e5a0e907c73187c7f75c9a4a09]
@startuml
title Singleton : une seule connexion PDO par exécution de script
skinparam sequenceMessageAlign left
participant "Script PHP\n(code appelant)" as A
participant "ConnexionBaseDeDonnees\n(classe, méthodes statiques)" as C
participant "Unique instance de\nConnexionBaseDeDonnees" as I
database "Base de données\nMySQL" as B

== Premier appel : l'instance n'existe pas encore ==
A -> C : ConnexionBaseDeDonnees::getPdo()
activate C
C -> C : getInstance()
C -> C : is_null(ConnexionBaseDeDonnees::$instance) ?
note right : true : première fois
C -> I ** : new ConnexionBaseDeDonnees()
activate I
I -> B : new PDO(...) : ouverture de la connexion
B - -> I : connexion
I -> I : $this->pdo = objet PDO
I - -> C :
deactivate I
C -> C : ConnexionBaseDeDonnees::$instance = instance créée
C - -> A : $instance->pdo
deactivate C

== Appels suivants : on réutilise l'instance ==
A -> C : ConnexionBaseDeDonnees::getPdo()
activate C
C -> C : getInstance()
C -> C : is_null(ConnexionBaseDeDonnees::$instance) ?
note right : false : pas de nouvel appel au constructeur,\npas de nouvelle connexion
C - -> A : $instance->pdo (le même objet PDO)
deactivate C

note over A, B : Le constructeur étant privé, « new ConnexionBaseDeDonnees() » est interdit hors de la classe :\non est obligé de passer par getPdo(). L'instance vit le temps de l'exécution du script :\nune nouvelle requête HTTP recrée une nouvelle instance (et une nouvelle connexion).
@enduml

PlantUML version 1.2020.02(Sun Mar 01 11:22:07 CET 2020)
(GPL source distribution)
Java Runtime: OpenJDK Runtime Environment
JVM: OpenJDK 64-Bit Server VM
Java Version: 25.0.4.1+1-1-26.04.4-Ubuntu
Operating System: Linux
Default Encoding: UTF-8
Language: fr
Country: FR
--></g></svg>