<?xml version="1.0" encoding="UTF-8" standalone="no"?><svg xmlns="http://www.w3.org/2000/svg" xmlns:xlink="http://www.w3.org/1999/xlink" contentScriptType="application/ecmascript" contentStyleType="text/css" height="811px" preserveAspectRatio="none" style="width:1047px;height:811px;" version="1.1" viewBox="0 0 1047 811" width="1047px" zoomAndPan="magnify"><defs><filter height="300%" id="f1ibfw8ojfk3dq" width="300%" x="-1" y="-1"><feGaussianBlur result="blurOut" stdDeviation="2.0"/><feColorMatrix in="blurOut" result="blurOut2" type="matrix" values="0 0 0 0 0 0 0 0 0 0 0 0 0 0 0 0 0 0 .4 0"/><feOffset dx="4.0" dy="4.0" in="blurOut2" result="blurOut3"/><feBlend in="SourceGraphic" in2="blurOut3" mode="normal"/></filter></defs><g><text fill="#000000" font-family="sans-serif" font-size="18" lengthAdjust="spacingAndGlyphs" textLength="563" x="237.75" y="29.2419">setcookie() n'a pas d'effet sur $_COOKIE pendant la même requête</text><rect fill="#FFFFFF" filter="url(#f1ibfw8ojfk3dq)" height="216.9421" style="stroke: #A80036; stroke-width: 1.0;" width="10" x="366.5" y="206.9958"/><rect fill="#FFFFFF" filter="url(#f1ibfw8ojfk3dq)" height="184.5301" style="stroke: #A80036; stroke-width: 1.0;" width="10" x="366.5" y="519.056"/><rect fill="#FFFFFF" filter="url(#f1ibfw8ojfk3dq)" height="118.118" style="stroke: #A80036; stroke-width: 1.0;" width="10" x="609.5" y="238.7018"/><rect fill="#FFFFFF" filter="url(#f1ibfw8ojfk3dq)" height="58.706" style="stroke: #A80036; stroke-width: 1.0;" width="10" x="609.5" y="595.468"/><line style="stroke: #A80036; stroke-width: 1.0; stroke-dasharray: 5.0,5.0;" x1="48" x2="48" y1="127.5838" y2="721.586"/><line style="stroke: #A80036; stroke-width: 1.0; stroke-dasharray: 5.0,5.0;" x1="371.5" x2="371.5" y1="127.5838" y2="721.586"/><line style="stroke: #A80036; stroke-width: 1.0; stroke-dasharray: 5.0,5.0;" x1="614" x2="614" y1="127.5838" y2="721.586"/><text fill="#000000" font-family="sans-serif" font-size="14" lengthAdjust="spacingAndGlyphs" textLength="75" x="8" y="123.4818">Navigateur</text><ellipse cx="48.5" cy="51.5158" fill="#FEFECE" filter="url(#f1ibfw8ojfk3dq)" rx="8" ry="8" style="stroke: #A80036; stroke-width: 2.0;"/><path d="M48.5,59.5158 L48.5,86.5158 M35.5,67.5158 L61.5,67.5158 M48.5,86.5158 L35.5,101.5158 M48.5,86.5158 L61.5,101.5158 " fill="none" filter="url(#f1ibfw8ojfk3dq)" style="stroke: #A80036; stroke-width: 2.0;"/><text fill="#000000" font-family="sans-serif" font-size="14" lengthAdjust="spacingAndGlyphs" textLength="75" x="8" y="735.552">Navigateur</text><ellipse cx="48.5" cy="749.654" fill="#FEFECE" filter="url(#f1ibfw8ojfk3dq)" rx="8" ry="8" style="stroke: #A80036; stroke-width: 2.0;"/><path d="M48.5,757.654 L48.5,784.654 M35.5,765.654 L61.5,765.654 M48.5,784.654 L35.5,799.654 M48.5,784.654 L61.5,799.654 " fill="none" filter="url(#f1ibfw8ojfk3dq)" style="stroke: #A80036; stroke-width: 2.0;"/><rect fill="#FEFECE" filter="url(#f1ibfw8ojfk3dq)" height="33.0679" style="stroke: #A80036; stroke-width: 1.5;" width="96" x="321.5" y="89.5158"/><text fill="#000000" font-family="sans-serif" font-size="14" lengthAdjust="spacingAndGlyphs" textLength="82" x="328.5" y="111.4818">Serveur PHP</text><rect fill="#FEFECE" filter="url(#f1ibfw8ojfk3dq)" height="33.0679" style="stroke: #A80036; stroke-width: 1.5;" width="96" x="321.5" y="720.586"/><text fill="#000000" font-family="sans-serif" font-size="14" lengthAdjust="spacingAndGlyphs" textLength="82" x="328.5" y="742.552">Serveur PHP</text><rect fill="#FEFECE" filter="url(#f1ibfw8ojfk3dq)" height="33.0679" style="stroke: #A80036; stroke-width: 1.5;" width="151" x="537" y="89.5158"/><text fill="#000000" font-family="sans-serif" font-size="14" lengthAdjust="spacingAndGlyphs" textLength="137" x="544" y="111.4818">Exécution script PHP</text><rect fill="#FEFECE" filter="url(#f1ibfw8ojfk3dq)" height="33.0679" style="stroke: #A80036; stroke-width: 1.5;" width="151" x="537" y="720.586"/><text fill="#000000" font-family="sans-serif" font-size="14" lengthAdjust="spacingAndGlyphs" textLength="137" x="544" y="742.552">Exécution script PHP</text><rect fill="#FFFFFF" filter="url(#f1ibfw8ojfk3dq)" height="216.9421" style="stroke: #A80036; stroke-width: 1.0;" width="10" x="366.5" y="206.9958"/><rect fill="#FFFFFF" filter="url(#f1ibfw8ojfk3dq)" height="184.5301" style="stroke: #A80036; stroke-width: 1.0;" width="10" x="366.5" y="519.056"/><rect fill="#FFFFFF" filter="url(#f1ibfw8ojfk3dq)" height="118.118" style="stroke: #A80036; stroke-width: 1.0;" width="10" x="609.5" y="238.7018"/><rect fill="#FFFFFF" filter="url(#f1ibfw8ojfk3dq)" height="58.706" style="stroke: #A80036; stroke-width: 1.0;" width="10" x="609.5" y="595.468"/><rect fill="#EEEEEE" filter="url(#f1ibfw8ojfk3dq)" height="3" style="stroke: #EEEEEE; stroke-width: 1.0;" width="1032.5" x="3" y="159.4368"/><line style="stroke: #000000; stroke-width: 1.0;" x1="3" x2="1035.5" y1="159.4368" y2="159.4368"/><line style="stroke: #000000; stroke-width: 1.0;" x1="3" x2="1035.5" y1="162.4368" y2="162.4368"/><rect fill="#EEEEEE" filter="url(#f1ibfw8ojfk3dq)" height="25.706" style="stroke: #000000; stroke-width: 2.0;" width="182" x="428.25" y="147.5838"/><text fill="#000000" font-family="sans-serif" font-size="13" font-weight="bold" lengthAdjust="spacingAndGlyphs" textLength="165" x="434.25" y="165.4808">Requête 1 (aucun cookie)</text><polygon fill="#A80036" points="354.5,202.9958,364.5,206.9958,354.5,210.9958,358.5,206.9958" style="stroke: #A80036; stroke-width: 1.0;"/><line style="stroke: #A80036; stroke-width: 1.0;" x1="48.5" x2="360.5" y1="206.9958" y2="206.9958"/><text fill="#000000" font-family="sans-serif" font-size="13" lengthAdjust="spacingAndGlyphs" textLength="299" x="55.5" y="201.1868">GET controleurFrontal.php?action=deposerCookie</text><polygon fill="#A80036" points="597.5,234.7018,607.5,238.7018,597.5,242.7018,601.5,238.7018" style="stroke: #A80036; stroke-width: 1.0;"/><line style="stroke: #A80036; stroke-width: 1.0;" x1="376.5" x2="603.5" y1="238.7018" y2="238.7018"/><text fill="#000000" font-family="sans-serif" font-size="13" lengthAdjust="spacingAndGlyphs" textLength="183" x="383.5" y="232.8928">Exécute controleurFrontal.php</text><line style="stroke: #A80036; stroke-width: 1.0;" x1="619.5" x2="661.5" y1="270.4078" y2="270.4078"/><line style="stroke: #A80036; stroke-width: 1.0;" x1="661.5" x2="661.5" y1="270.4078" y2="283.4078"/><line style="stroke: #A80036; stroke-width: 1.0;" x1="620.5" x2="661.5" y1="283.4078" y2="283.4078"/><polygon fill="#A80036" points="630.5,279.4078,620.5,283.4078,630.5,287.4078,626.5,283.4078" style="stroke: #A80036; stroke-width: 1.0;"/><text fill="#000000" font-family="sans-serif" font-size="13" lengthAdjust="spacingAndGlyphs" textLength="175" x="626.5" y="264.5988">setcookie("TestCookie", "OK")</text><line style="stroke: #A80036; stroke-width: 1.0;" x1="619.5" x2="661.5" y1="322.4669" y2="322.4669"/><line style="stroke: #A80036; stroke-width: 1.0;" x1="661.5" x2="661.5" y1="322.4669" y2="335.4669"/><line style="stroke: #A80036; stroke-width: 1.0;" x1="620.5" x2="661.5" y1="335.4669" y2="335.4669"/><polygon fill="#A80036" points="630.5,331.4669,620.5,335.4669,630.5,339.4669,626.5,335.4669" style="stroke: #A80036; stroke-width: 1.0;"/><text fill="#000000" font-family="sans-serif" font-size="13" lengthAdjust="spacingAndGlyphs" textLength="188" x="626.5" y="316.6579">isset($_COOKIE["TestCookie"]) ?</text><path d="M826,296.4078 L826,341.4078 L1016,341.4078 L1016,306.4078 L1006,296.4078 L826,296.4078 " fill="#FBFB77" filter="url(#f1ibfw8ojfk3dq)" style="stroke: #A80036; stroke-width: 1.0;"/><path d="M1006,296.4078 L1006,306.4078 L1016,306.4078 L1006,296.4078 " fill="#FBFB77" style="stroke: #A80036; stroke-width: 1.0;"/><text fill="#000000" font-family="sans-serif" font-size="13" lengthAdjust="spacingAndGlyphs" textLength="169" x="832" y="315.3048">false : $_COOKIE a été rempli</text><text fill="#000000" font-family="sans-serif" font-size="13" lengthAdjust="spacingAndGlyphs" textLength="157" x="832" y="333.0109">avant l'exécution du script</text><polygon fill="#A80036" points="387.5,352.8199,377.5,356.8199,387.5,360.8199,383.5,356.8199" style="stroke: #A80036; stroke-width: 1.0;"/><line style="stroke: #A80036; stroke-width: 1.0; stroke-dasharray: 2.0,2.0;" x1="381.5" x2="613.5" y1="356.8199" y2="356.8199"/><polygon fill="#A80036" points="59.5,419.9379,49.5,423.9379,59.5,427.9379,55.5,423.9379" style="stroke: #A80036; stroke-width: 1.0;"/><line style="stroke: #A80036; stroke-width: 1.0; stroke-dasharray: 2.0,2.0;" x1="53.5" x2="370.5" y1="423.9379" y2="423.9379"/><text fill="#000000" font-family="sans-serif" font-size="13" lengthAdjust="spacingAndGlyphs" textLength="42" x="65.5" y="382.7169">200 OK</text><text fill="#000000" font-family="sans-serif" font-size="13" lengthAdjust="spacingAndGlyphs" textLength="161" x="65.5" y="400.4229">Set-Cookie: TestCookie=OK</text><text fill="#000000" font-family="sans-serif" font-size="13" lengthAdjust="spacingAndGlyphs" textLength="98" x="65.5" y="418.1289">&lt;html&gt;...&lt;/html&gt;</text><rect fill="#EEEEEE" filter="url(#f1ibfw8ojfk3dq)" height="3" style="stroke: #EEEEEE; stroke-width: 1.0;" width="1032.5" x="3" y="453.7909"/><line style="stroke: #000000; stroke-width: 1.0;" x1="3" x2="1035.5" y1="453.7909" y2="453.7909"/><line style="stroke: #000000; stroke-width: 1.0;" x1="3" x2="1035.5" y1="456.7909" y2="456.7909"/><rect fill="#EEEEEE" filter="url(#f1ibfw8ojfk3dq)" height="25.706" style="stroke: #000000; stroke-width: 2.0;" width="148" x="445.25" y="441.9379"/><text fill="#000000" font-family="sans-serif" font-size="13" font-weight="bold" lengthAdjust="spacingAndGlyphs" textLength="128" x="451.25" y="459.8349">Requêtes suivantes</text><polygon fill="#A80036" points="354.5,515.056,364.5,519.056,354.5,523.056,358.5,519.056" style="stroke: #A80036; stroke-width: 1.0;"/><line style="stroke: #A80036; stroke-width: 1.0;" x1="48.5" x2="360.5" y1="519.056" y2="519.056"/><text fill="#000000" font-family="sans-serif" font-size="13" lengthAdjust="spacingAndGlyphs" textLength="268" x="55.5" y="495.5409">GET controleurFrontal.php?action=lireCookie</text><text fill="#000000" font-family="sans-serif" font-size="13" lengthAdjust="spacingAndGlyphs" textLength="138" x="55.5" y="513.247">Cookie: TestCookie=OK</text><line style="stroke: #A80036; stroke-width: 1.0;" x1="376.5" x2="418.5" y1="550.762" y2="550.762"/><line style="stroke: #A80036; stroke-width: 1.0;" x1="418.5" x2="418.5" y1="550.762" y2="563.762"/><line style="stroke: #A80036; stroke-width: 1.0;" x1="377.5" x2="418.5" y1="563.762" y2="563.762"/><polygon fill="#A80036" points="387.5,559.762,377.5,563.762,387.5,567.762,383.5,563.762" style="stroke: #A80036; stroke-width: 1.0;"/><text fill="#000000" font-family="sans-serif" font-size="13" lengthAdjust="spacingAndGlyphs" textLength="219" x="383.5" y="544.953">PHP remplit $_COOKIE["TestCookie"]</text><polygon fill="#A80036" points="597.5,591.468,607.5,595.468,597.5,599.468,601.5,595.468" style="stroke: #A80036; stroke-width: 1.0;"/><line style="stroke: #A80036; stroke-width: 1.0;" x1="376.5" x2="603.5" y1="595.468" y2="595.468"/><text fill="#000000" font-family="sans-serif" font-size="13" lengthAdjust="spacingAndGlyphs" textLength="183" x="383.5" y="589.659">Exécute controleurFrontal.php</text><line style="stroke: #A80036; stroke-width: 1.0;" x1="619.5" x2="661.5" y1="627.174" y2="627.174"/><line style="stroke: #A80036; stroke-width: 1.0;" x1="661.5" x2="661.5" y1="627.174" y2="640.174"/><line style="stroke: #A80036; stroke-width: 1.0;" x1="620.5" x2="661.5" y1="640.174" y2="640.174"/><polygon fill="#A80036" points="630.5,636.174,620.5,640.174,630.5,644.174,626.5,640.174" style="stroke: #A80036; stroke-width: 1.0;"/><text fill="#000000" font-family="sans-serif" font-size="13" lengthAdjust="spacingAndGlyphs" textLength="188" x="626.5" y="621.365">isset($_COOKIE["TestCookie"]) ?</text><path d="M826,609.968 L826,636.968 L872,636.968 L872,619.968 L862,609.968 L826,609.968 " fill="#FBFB77" filter="url(#f1ibfw8ojfk3dq)" style="stroke: #A80036; stroke-width: 1.0;"/><path d="M862,609.968 L862,619.968 L872,619.968 L862,609.968 " fill="#FBFB77" style="stroke: #A80036; stroke-width: 1.0;"/><text fill="#000000" font-family="sans-serif" font-size="13" lengthAdjust="spacingAndGlyphs" textLength="25" x="832" y="628.865">true</text><polygon fill="#A80036" points="387.5,650.174,377.5,654.174,387.5,658.174,383.5,654.174" style="stroke: #A80036; stroke-width: 1.0;"/><line style="stroke: #A80036; stroke-width: 1.0; stroke-dasharray: 2.0,2.0;" x1="381.5" x2="613.5" y1="654.174" y2="654.174"/><polygon fill="#A80036" points="59.5,699.586,49.5,703.586,59.5,707.586,55.5,703.586" style="stroke: #A80036; stroke-width: 1.0;"/><line style="stroke: #A80036; stroke-width: 1.0; stroke-dasharray: 2.0,2.0;" x1="53.5" x2="370.5" y1="703.586" y2="703.586"/><text fill="#000000" font-family="sans-serif" font-size="13" lengthAdjust="spacingAndGlyphs" textLength="42" x="65.5" y="680.071">200 OK</text><text fill="#000000" font-family="sans-serif" font-size="13" lengthAdjust="spacingAndGlyphs" textLength="131" x="65.5" y="697.777">&lt;html&gt;... OK ...&lt;/html&gt;</text><!--MD5=[85dd85a50c4c93fd9f27a617d0d208a2]
@startuml
title setcookie() n'a pas d'effet sur $_COOKIE pendant la même requête
actor "Navigateur" as C
participant "Serveur PHP" as S
participant "Exécution script PHP" as E

== Requête 1 (aucun cookie) ==
C -> S : GET controleurFrontal.php?action=deposerCookie
activate S
S -> E : Exécute controleurFrontal.php
activate E
E -> E : setcookie("TestCookie", "OK")
E -> E : isset($_COOKIE["TestCookie"]) ?
note right : false : $_COOKIE a été rempli\navant l'exécution du script
E - -> S : 
deactivate E
S - -> C : 200 OK\nSet-Cookie: TestCookie=OK\n<html>...</html>
deactivate S

== Requêtes suivantes  ==
C -> S : GET controleurFrontal.php?action=lireCookie\nCookie: TestCookie=OK
activate S
S -> S : PHP remplit $_COOKIE["TestCookie"]
S -> E : Exécute controleurFrontal.php
activate E
E -> E : isset($_COOKIE["TestCookie"]) ?
note right : true
E - -> S : 
deactivate E
S - -> C : 200 OK\n<html>... OK ...</html>
deactivate S
@enduml

PlantUML version 1.2020.02(Sun Mar 01 11:22:07 CET 2020)
(GPL source distribution)
Java Runtime: OpenJDK Runtime Environment
JVM: OpenJDK 64-Bit Server VM
Java Version: 25.0.4.1+1-1-26.04.4-Ubuntu
Operating System: Linux
Default Encoding: UTF-8
Language: fr
Country: FR
--></g></svg>